<svg width="86" height="87" viewBox="0 0 86 87" fill="none" xmlns="http://www.w3.org/2000/svg">
<path d="M41.9046 0.690975C42.204 -0.230325 43.5074 -0.230325 43.8067 0.690975L52.5098 27.4762C52.6437 27.8882 53.0276 28.1672 53.4608 28.1672H81.6241C82.5931 28.1672 82.9961 29.4068 82.2121 29.9762L59.4274 46.5304C59.0769 46.785 58.9303 47.2364 59.0641 47.6484L67.7672 74.4336C68.0665 75.3549 67.012 76.1211 66.2283 75.5517L43.4435 58.9975C43.093 58.7428 42.6184 58.7428 42.2679 58.9975L19.483 75.5517C18.6993 76.1211 17.6448 75.3549 17.9442 74.4336L26.6472 47.6484C26.7811 47.2364 26.6345 46.785 26.284 46.5304L3.49908 29.9762C2.71538 29.4068 3.11818 28.1672 4.08688 28.1672H32.2505C32.6837 28.1672 33.0677 27.8882 33.2016 27.4762L41.9046 0.690975Z" fill="#E1A31F"/>
<path d="M16.0457 6.47319C15.7463 5.55189 16.8008 4.78579 17.5845 5.35519L42.2891 23.3041C42.6396 23.5588 43.1142 23.5588 43.4647 23.3041L68.1693 5.35519C68.953 4.78579 70.0075 5.55189 69.7082 6.47319L60.2718 35.5152C60.138 35.9272 60.2846 36.3786 60.6351 36.6332L85.34 54.5822C86.123 55.1516 85.721 56.3912 84.752 56.3912H54.2154C53.7821 56.3912 53.3982 56.6702 53.2643 57.0822L43.828 86.1239C43.5286 87.0459 42.2252 87.0459 41.9259 86.1239L32.4895 57.0822C32.3557 56.6702 31.9717 56.3912 31.5385 56.3912H1.00191C0.0332145 56.3912 -0.369585 55.1516 0.414115 54.5822L25.1187 36.6332C25.4692 36.3786 25.6159 35.9272 25.482 35.5152L16.0457 6.47319Z" fill="#E1A31F"/>
<path d="M10.684 44.9478C9.12193 43.3857 9.12193 40.8531 10.684 39.291L40.3825 9.59247C41.9446 8.03037 44.4773 8.03037 46.0394 9.59247L75.7378 39.291C77.3 40.8531 77.3 43.3857 75.7378 44.9478L46.0394 74.6463C44.4773 76.2084 41.9446 76.2084 40.3825 74.6463L10.684 44.9478Z" fill="#F8BC3B"/>
<path fill-rule="evenodd" clip-rule="evenodd" d="M64.7652 44.2782C64.2865 55.6723 54.8712 64.7642 43.3219 64.7642C31.4663 64.7642 21.8555 54.8629 21.8555 43.3684C21.8555 41.832 21.8279 38.7615 24.1392 33.5809C25.5224 30.4806 26.3899 28.5329 26.8796 26.7525C27.1486 25.774 27.6718 24.2194 29.1632 26.7525C30.0426 28.2461 30.0767 30.3943 30.0767 30.3943C30.0767 30.3943 33.3487 27.8917 35.5574 23.1107C38.7954 16.1017 36.2119 11.912 35.3291 8.99861C35.0235 7.99071 34.8317 6.17932 36.9276 6.95002C39.0633 7.73552 44.7094 11.6749 47.6608 15.827C51.873 21.753 53.37 27.4354 53.37 27.4354C53.37 27.4354 54.7187 25.7669 55.1969 24.0211C55.737 22.0498 55.745 20.0973 57.4803 22.2004C59.1307 24.2005 61.5818 27.9591 62.9613 31.5324C65.4663 38.0215 64.7652 44.2782 64.7652 44.2782Z" fill="url(#paint0_linear_222_120)"/>
<path fill-rule="evenodd" clip-rule="evenodd" d="M42.8555 64.7642C35.1235 64.7642 28.8557 58.5149 28.8557 50.8058C28.8557 46.1542 30.7358 43.3301 34.6486 39.5003C37.1539 37.0482 39.4988 34.0364 40.4954 31.9855C40.6916 31.5818 41.1381 29.478 42.8596 31.9413C43.7627 33.2332 45.1784 35.5308 46.0863 37.4916C47.6513 40.8723 48.0247 44.1487 48.0247 44.1487C48.0247 44.1487 49.5585 43.2476 50.6093 40.9275C50.9481 40.1798 51.633 37.349 53.5478 40.1793C54.9527 42.2564 56.8828 45.9908 56.8554 50.8058C56.8554 58.5149 50.5873 64.7642 42.8555 64.7642Z" fill="#E1A31F"/>
<defs>
<linearGradient id="paint0_linear_222_120" x1="42.874" y1="86.8792" x2="42.874" y2="0.065814" gradientUnits="userSpaceOnUse">
<stop stop-color="#C78D11"/>
</linearGradient>
</defs>
</svg>
